<svg xmlns="http://www.w3.org/2000/svg" viewBox="0 0 32 32" fill="none">
  <defs>
    <linearGradient id="fg" x1="0%" y1="0%" x2="100%" y2="100%">
      <stop offset="0%" stop-color="#2dd4bf"/>
      <stop offset="100%" stop-color="#38bdf8"/>
    </linearGradient>
  </defs>
  <rect width="32" height="32" rx="6" fill="url(#fg)" opacity="0.15"/>
  <!-- Stylized lung lobes + neural node -->
  <path d="M10 16c0-2 1.5-4 4-4s4 2 4 4v8c0 1.5-1 3-3 3h-2c-1.5 0-3-1.5-3-3V16z" fill="url(#fg)" opacity="0.9"/>
  <path d="M18 16c0-2 1.5-4 4-4s4 2 4 4v8c0 1.5-1 3-3 3h-2c-1.5 0-3-1.5-3-3V16z" fill="url(#fg)" opacity="0.9"/>
  <circle cx="16" cy="12" r="2.5" fill="white"/>
</svg>
